<svg width="52" height="52" viewBox="0 0 52 52" fill="none" xmlns="http://www.w3.org/2000/svg">
<g filter="url(#filter0_dii_4064_3346)">
<path d="M2 11C2 5.47715 6.47715 1 12 1H40C45.5229 1 50 5.47715 50 11V39C50 44.5229 45.5228 49 40 49H12C6.47715 49 2 44.5228 2 39V11Z" fill="#7F56D9"/>
<path d="M3 11C3 6.02944 7.02944 2 12 2H40C44.9706 2 49 6.02944 49 11V39C49 43.9706 44.9706 48 40 48H12C7.02944 48 3 43.9706 3 39V11Z" stroke="url(#paint0_linear_4064_3346)" stroke-width="2"/>
<path d="M22 27C22 27 23.5 29 26 29C28.5 29 30 27 30 27M31 22.24C30.605 22.725 30.065 23 29.5 23C28.935 23 28.41 22.725 28 22.24M24 22.24C23.605 22.725 23.065 23 22.5 23C21.935 23 21.41 22.725 21 22.24M36 25C36 30.5228 31.5228 35 26 35C20.4772 35 16 30.5228 16 25C16 19.4772 20.4772 15 26 15C31.5228 15 36 19.4772 36 25Z" stroke="white" stroke-width="2" stroke-linecap="round" stroke-linejoin="round"/>
</g>
<defs>
<filter id="filter0_dii_4064_3346" x="0" y="0" width="52" height="52" filterUnits="userSpaceOnUse" color-interpolation-filters="sRGB">
<feFlood flood-opacity="0" result="BackgroundImageFix"/>
<feColorMatrix in="SourceAlpha" type="matrix" values="0 0 0 0 0 0 0 0 0 0 0 0 0 0 0 0 0 0 127 0" result="hardAlpha"/>
<feOffset dy="1"/>
<feGaussianBlur stdDeviation="1"/>
<feComposite in2="hardAlpha" operator="out"/>
<feColorMatrix type="matrix" values="0 0 0 0 0.0392157 0 0 0 0 0.0496732 0 0 0 0 0.0705882 0 0 0 0.05 0"/>
<feBlend mode="normal" in2="BackgroundImageFix" result="effect1_dropShadow_4064_3346"/>
<feBlend mode="normal" in="SourceGraphic" in2="effect1_dropShadow_4064_3346" result="shape"/>
<feColorMatrix in="SourceAlpha" type="matrix" values="0 0 0 0 0 0 0 0 0 0 0 0 0 0 0 0 0 0 127 0" result="hardAlpha"/>
<feOffset dy="-2"/>
<feComposite in2="hardAlpha" operator="arithmetic" k2="-1" k3="1"/>
<feColorMatrix type="matrix" values="0 0 0 0 0.0392157 0 0 0 0 0.0496732 0 0 0 0 0.0705882 0 0 0 0.05 0"/>
<feBlend mode="normal" in2="shape" result="effect2_innerShadow_4064_3346"/>
<feColorMatrix in="SourceAlpha" type="matrix" values="0 0 0 0 0 0 0 0 0 0 0 0 0 0 0 0 0 0 127 0" result="hardAlpha"/>
<feMorphology radius="1" operator="erode" in="SourceAlpha" result="effect3_innerShadow_4064_3346"/>
<feOffset/>
<feComposite in2="hardAlpha" operator="arithmetic" k2="-1" k3="1"/>
<feColorMatrix type="matrix" values="0 0 0 0 0.0392157 0 0 0 0 0.0496732 0 0 0 0 0.0705882 0 0 0 0.18 0"/>
<feBlend mode="normal" in2="effect2_innerShadow_4064_3346" result="effect3_innerShadow_4064_3346"/>
</filter>
<linearGradient id="paint0_linear_4064_3346" x1="26" y1="1" x2="26" y2="49" gradientUnits="userSpaceOnUse">
<stop stop-color="white" stop-opacity="0.12"/>
<stop offset="1" stop-color="white" stop-opacity="0"/>
</linearGradient>
</defs>
</svg>
